HIERARCHY
ROOT Hips
{
	OFFSET -3.958830 18.904000 13.208200
	CHANNELS 6 Xposition Yposition Zposition Zrotation Yrotation Xrotation 
	JOINT LHipJoint
	{
		OFFSET 0.000000 0.000000 0.000000
		CHANNELS 3 Zrotation Yrotation Xrotation
		JOINT LeftUpLeg
		{
			OFFSET 1.800000 -1.400000 0.085000
			CHANNELS 3 Zrotation Yrotation Xrotation
			JOINT LeftLeg
			{
				OFFSET 2.215000 -6.000000 0.000000
				CHANNELS 3 Zrotation Yrotation Xrotation
				JOINT LeftFoot
				{
					OFFSET 2.500000 -6.900000 0.000000
					CHANNELS 3 Zrotation Yrotation Xrotation
					JOINT LeftToeBase
					{
						OFFSET 0.200000 -0.500000 1.950000
						CHANNELS 3 Zrotation Yrotation Xrotation
						End Site
						{
							OFFSET 0.000000 0.000000 0.000000
						}
					}
				}
			}
		}
	}
	JOINT RHipJoint
	{
		OFFSET 0.000000 0.000000 0.000000
		CHANNELS 3 Zrotation Yrotation Xrotation
		JOINT RightUpLeg
		{
			OFFSET -1.800000 -1.400000 0.085000
			CHANNELS 3 Zrotation Yrotation Xrotation
			JOINT RightLeg
			{
				OFFSET -2.215000 -6.000000 0.000000
				CHANNELS 3 Zrotation Yrotation Xrotation
				JOINT RightFoot
				{
					OFFSET -2.500000 -6.900000 0.000000
					CHANNELS 3 Zrotation Yrotation Xrotation
					JOINT RightToeBase
					{
						OFFSET -0.200000 -0.500000 1.950000
						CHANNELS 3 Zrotation Yrotation Xrotation
						End Site
						{
							OFFSET 0.000000 0.000000 0.000000
						}
					}
				}
			}
		}
	}
	JOINT LowerBack
	{
		OFFSET 0.000000 0.000000 0.000000
		CHANNELS 3 Zrotation Yrotation Xrotation
		JOINT Spine
		{
			OFFSET -0.087000 1.940000 -0.288900
			CHANNELS 3 Zrotation Yrotation Xrotation
			JOINT Spine1
			{
				OFFSET 0.000000 1.950000 0.060000
				CHANNELS 3 Zrotation Yrotation Xrotation
				JOINT Neck
				{
					OFFSET 0.000000 0.000000 0.000000
					CHANNELS 3 Zrotation Yrotation Xrotation
					JOINT Neck1
					{
						OFFSET 0.000000 1.600000 0.340000
						CHANNELS 3 Zrotation Yrotation Xrotation
						JOINT Head
						{
							OFFSET 0.000000 1.667000 -0.240000
							CHANNELS 3 Zrotation Yrotation Xrotation
							End Site
							{
								OFFSET 0.000000 0.000000 0.000000
							}
						}
					}
				}
				JOINT LeftShoulder
				{
					OFFSET 0.000000 0.000000 0.000000
					CHANNELS 3 Zrotation Yrotation Xrotation
					JOINT LeftArm
					{
						OFFSET 2.700000 1.550000 -0.730000
						CHANNELS 3 Zrotation Yrotation Xrotation
						JOINT LeftForeArm
						{
							OFFSET 5.450000 0.000000 0.000000
							CHANNELS 3 Zrotation Yrotation Xrotation
							JOINT LeftHand
							{
								OFFSET 3.450000 0.000000 0.000000
								CHANNELS 3 Zrotation Yrotation Xrotation
								JOINT LeftHandIndex1
								{
									OFFSET 0.750000 0.000000 0.000000
									CHANNELS 3 Zrotation Yrotation Xrotation
									End Site
									{
										OFFSET 0.000000 0.000000 0.000000
									}
								}
							}
						}
					}
				}
				JOINT RightShoulder
				{
					OFFSET 0.000000 0.000000 0.000000
					CHANNELS 3 Zrotation Yrotation Xrotation
					JOINT RightArm
					{
						OFFSET -2.700000 1.550000 -0.730000
						CHANNELS 3 Zrotation Yrotation Xrotation
						JOINT RightForeArm
						{
							OFFSET -5.450000 0.000000 0.000000
							CHANNELS 3 Zrotation Yrotation Xrotation
							JOINT RightHand
							{
								OFFSET -3.450000 0.000000 0.000000
								CHANNELS 3 Zrotation Yrotation Xrotation
								JOINT RightHandIndex1
								{
									OFFSET -0.750000 0.000000 0.000000
									CHANNELS 3 Zrotation Yrotation Xrotation
									End Site
									{
										OFFSET 0.000000 0.000000 0.000000
									}
								}
							}
						}
					}
				}
			}
		}
	}
}
MOTION
Frames: 7
Frame Time: 0.016667
-0.517460 16.300520 -5.725550 -9.029650 18.179459 -7.716317 -15.933208 11.176876 4.962796 -0.445888 -7.968675 -43.264716 -31.712953 17.483266 32.926805 0.452838 10.121811 1.232538 -0.298410 -0.574640 -0.370050 18.096006 -7.735296 3.916414 22.177144 6.120105 0.693211 32.010420 -17.948318 34.490302 -1.808277 -8.911903 1.326344 -0.199540 1.007570 0.599110 -2.024447 -3.824294 -9.087271 -6.334413 12.778971 48.755937 6.217192 14.511561 1.843377 1.797100 4.210951 -5.907587 7.205000 -6.403259 24.694841 0.948530 -3.382200 -19.127220 -10.471325 10.506926 -3.482985 -19.222303 12.699079 -4.241457 152.910770 -18.808876 -79.121881 -4.086864 3.348938 0.707840 0.443260 -0.047570 0.176030 5.515089 -3.612025 6.052582 18.153232 -1.933958 -5.849800 -152.029276 34.578491 -125.805792 1.981900 -1.450235 -0.512040 0.579290 0.637350 0.034140 
-0.495070 16.235740 -5.720270 -7.952550 19.260570 -7.493898 -15.929431 11.091263 5.110998 0.393362 -8.081602 -43.180312 -35.918486 18.629532 31.781462 0.699314 10.502848 1.181970 -0.368590 -0.619000 -0.428620 18.099576 -7.744473 3.816895 21.271505 5.508614 1.237925 32.034891 -17.525171 32.980672 -1.737388 -8.699108 1.454225 -0.254540 1.043970 0.554670 -2.018349 -3.788680 -9.148017 -6.980245 12.682438 48.681840 5.905104 13.861830 1.896943 1.714018 3.915811 -6.745401 6.500968 -5.885542 25.829524 0.967640 -3.656680 -17.350960 -11.683292 7.774210 -2.675637 -19.764549 13.490422 -5.847803 152.997463 -16.032679 -73.257497 -4.064141 3.266399 0.667510 0.458380 -0.062980 0.188110 7.066412 -1.198316 6.702307 17.088162 -3.702458 -6.574933 -151.776858 29.664862 -119.302543 1.987653 -1.387772 -0.510470 0.614230 0.633880 0.071140 
-0.468720 16.259020 -5.733640 -7.189838 20.746433 -7.686075 -15.856407 11.016223 5.147193 0.640307 -8.166601 -42.243110 -37.799820 18.961056 31.040070 0.868495 10.592892 1.186219 -0.453590 -0.709300 -0.504620 18.150230 -7.894228 3.768059 19.862609 5.401785 1.027773 33.007954 -17.561841 31.719937 -1.699206 -8.607360 1.493953 -0.354020 1.060810 0.571570 -2.219654 -3.457224 -9.193794 -5.723064 11.512811 50.275343 3.919035 13.154561 2.003077 1.620508 3.236715 -7.876408 5.382680 -5.285883 25.887873 2.464810 -3.839760 -16.232110 -12.219291 5.244571 -1.425744 -21.591723 12.200318 -6.755305 152.531774 -16.073723 -76.760795 -4.081943 3.223665 0.638780 0.455470 -0.070140 0.176270 7.762290 1.116070 7.509108 19.048616 -5.140004 -8.544532 -150.131567 28.894764 -116.622310 2.010590 -1.365887 -0.471330 0.560570 0.661380 0.106490 
-0.429260 16.327520 -5.728180 -6.739251 20.781676 -7.203166 -15.789944 10.865488 5.215761 1.863229 -7.680655 -42.173532 -39.777824 19.563522 30.334212 1.058030 10.754061 1.182338 -0.563240 -0.837130 -0.597970 18.198470 -8.065998 3.730024 18.587016 5.619154 0.577663 33.209048 -17.379033 31.068612 -1.628125 -8.519997 1.556250 -0.465860 1.081900 0.539340 -2.418362 -2.932808 -9.271333 -4.428046 10.516382 49.632015 2.143034 12.811502 2.154163 1.445821 2.654632 -9.536911 4.353848 -5.052645 27.556027 3.791910 -4.829480 -11.605090 -11.513021 3.108377 0.590905 -26.157167 10.732468 -6.894923 152.096258 -18.540601 -85.968354 -4.091761 3.156667 0.596460 0.455780 -0.110450 0.178220 7.470415 3.326723 8.558658 22.875871 -5.693995 -10.584686 -146.631621 33.454901 -117.119112 2.065376 -1.334258 -0.461480 0.509600 0.672420 0.138100 
-0.399220 16.456070 -5.701190 -5.858671 21.393108 -5.803376 -15.775168 10.771505 5.277986 2.383942 -7.717113 -42.500820 -40.107033 19.732473 30.114532 1.135701 10.740197 1.177785 -0.602120 -0.890990 -0.603350 18.200465 -8.224692 3.634169 17.054005 5.643513 -0.636095 32.206701 -16.816783 30.583663 -1.536056 -8.296501 1.615260 -0.527930 1.048660 0.543820 -2.453921 -2.565855 -9.253513 -4.273625 10.401121 46.699615 1.329755 13.066745 3.385055 1.579545 3.426731 -10.975624 5.656066 -5.623797 28.941075 4.078580 -4.892150 -8.291560 -9.822449 1.896991 2.141938 -31.236717 5.840558 -5.207733 150.650937 -25.457091 -100.081463 -4.144876 3.124863 0.565120 0.451370 -0.114700 0.152310 5.547563 3.825499 9.505126 29.948129 -5.416635 -12.110920 -141.683290 41.571905 -118.845085 2.114421 -1.316829 -0.424610 0.431340 0.669320 0.136480 
-0.370550 16.637170 -5.677870 -4.682841 22.124638 -4.183851 -15.755525 10.766442 5.307340 1.994414 -8.258493 -42.671324 -38.128337 19.245608 30.592533 1.070091 10.499644 1.205292 -0.608190 -0.917760 -0.594640 18.185499 -8.461367 3.514719 14.502177 5.549105 -2.120774 31.249781 -16.381395 30.121648 -1.459238 -8.077801 1.665638 -0.564940 0.996930 0.566710 -2.496321 -2.238029 -9.204993 -4.398128 10.244785 43.463704 0.465801 12.932177 4.271207 1.853262 4.146603 -12.258141 6.792488 -5.616740 31.571522 3.892290 -4.160890 -6.112360 -9.592005 -0.929143 3.543518 -34.834476 2.281506 -5.060292 147.242365 -32.997370 -108.186170 -4.184513 3.085190 0.583030 0.435990 -0.094280 0.127540 4.941259 5.682530 10.358473 35.833736 -5.057191 -13.762744 -134.353730 48.645927 -114.834784 2.126780 -1.214252 -0.394060 0.360830 0.676450 0.114240 
-0.337060 16.847750 -5.641990 -4.140402 22.344776 -3.292987 -15.678391 10.739740 5.261666 2.365963 -8.091941 -41.978509 -35.762950 18.625287 30.886098 0.948494 10.201901 1.249897 -0.579990 -0.901790 -0.537410 18.211534 -8.811358 3.453613 12.453028 5.322756 -2.865314 29.950823 -15.850538 29.704938 -1.422972 -7.820088 1.718223 -0.572890 0.931510 0.561500 -2.713121 -1.608256 -9.175414 -3.432151 9.648168 40.984246 -1.233841 12.659581 4.529311 1.932508 4.712408 -13.146148 7.860366 -5.511216 34.897177 5.175050 -3.646560 -6.725750 -9.720480 -3.590172 4.498809 -37.764955 0.329208 -6.174806 141.586388 -41.553146 -111.362006 -4.176023 2.985149 0.656990 0.375300 -0.033540 0.105720 5.020451 7.513138 10.869274 41.249306 -3.422093 -14.555891 -122.569027 55.565113 -104.502529 2.166634 -0.760871 -0.388580 0.355700 0.664700 0.083240 
